REM DIRINDEX 1\2,1\3
REM DIRNAME folder01,folder02,folder03
TITLE ""
FILE "2801-2820.mp3" MP3
  TRACK 01 AUDIO
    TITLE "0:"
    INDEX 01 00:00:00
  TRACK 02 AUDIO
    TITLE "2:cjc039_4601"
    INDEX 01 00:00:27
  TRACK 03 AUDIO
    TITLE "0:"
    INDEX 01 00:01:40
  TRACK 04 AUDIO
    TITLE "3:cjc039_4602"
    INDEX 01 00:02:20
  TRACK 05 AUDIO
    TITLE "0:"
    INDEX 01 00:07:62
  TRACK 06 AUDIO
    TITLE "2:cjc039_4603"
    INDEX 01 00:09:32
  TRACK 07 AUDIO
    TITLE "0:"
    INDEX 01 00:10:68
  TRACK 08 AUDIO
    TITLE "3:cjc039_4604"
    INDEX 01 00:11:46
  TRACK 09 AUDIO
    TITLE "0:"
    INDEX 01 00:16:12
  TRACK 10 AUDIO
    TITLE "2:cjc039_4605"
    INDEX 01 00:17:65
  TRACK 11 AUDIO
    TITLE "0:"
    INDEX 01 00:19:01
  TRACK 12 AUDIO
    TITLE "3:cjc039_4606"
    INDEX 01 00:19:58
  TRACK 13 AUDIO
    TITLE "0:"
    INDEX 01 00:22:36
  TRACK 14 AUDIO
    TITLE "2:cjc039_4607"
    INDEX 01 00:24:18
  TRACK 15 AUDIO
    TITLE "0:"
    INDEX 01 00:25:37
  TRACK 16 AUDIO
    TITLE "3:cjc039_4608"
    INDEX 01 00:26:15
  TRACK 17 AUDIO
    TITLE "0:"
    INDEX 01 00:29:48
  TRACK 18 AUDIO
    TITLE "2:cjc039_4609"
    INDEX 01 00:31:27
  TRACK 19 AUDIO
    TITLE "0:"
    INDEX 01 00:32:37
  TRACK 20 AUDIO
    TITLE "3:cjc039_4610"
    INDEX 01 00:33:11
  TRACK 21 AUDIO
    TITLE "0:"
    INDEX 01 00:35:74
  TRACK 22 AUDIO
    TITLE "2:cjc039_4611"
    INDEX 01 00:37:52
  TRACK 23 AUDIO
    TITLE "0:"
    INDEX 01 00:38:69
  TRACK 24 AUDIO
    TITLE "3:cjc039_4612"
    INDEX 01 00:39:33
  TRACK 25 AUDIO
    TITLE "0:"
    INDEX 01 00:43:54
  TRACK 26 AUDIO
    TITLE "2:cjc039_4613"
    INDEX 01 00:45:32
  TRACK 27 AUDIO
    TITLE "0:"
    INDEX 01 00:46:37
  TRACK 28 AUDIO
    TITLE "3:cjc039_4614"
    INDEX 01 00:47:19
  TRACK 29 AUDIO
    TITLE "0:"
    INDEX 01 00:50:37
  TRACK 30 AUDIO
    TITLE "2:cjc039_4615"
    INDEX 01 00:52:06
  TRACK 31 AUDIO
    TITLE "0:"
    INDEX 01 00:53:19
  TRACK 32 AUDIO
    TITLE "3:cjc039_4616"
    INDEX 01 00:54:01
  TRACK 33 AUDIO
    TITLE "0:"
    INDEX 01 00:57:33
  TRACK 34 AUDIO
    TITLE "2:cjc039_4617"
    INDEX 01 00:59:02
  TRACK 35 AUDIO
    TITLE "0:"
    INDEX 01 01:00:23
  TRACK 36 AUDIO
    TITLE "3:cjc039_4618"
    INDEX 01 01:00:72
  TRACK 37 AUDIO
    TITLE "0:"
    INDEX 01 01:03:67
  TRACK 38 AUDIO
    TITLE "2:cjc039_4619"
    INDEX 01 01:05:40
  TRACK 39 AUDIO
    TITLE "0:"
    INDEX 01 01:06:73
  TRACK 40 AUDIO
    TITLE "3:cjc039_4620"
    INDEX 01 01:07:49
  TRACK 41 AUDIO
    TITLE "0:"
    INDEX 01 01:12:13
  TRACK 42 AUDIO
    TITLE "2:cjc039_4621"
    INDEX 01 01:13:61
  TRACK 43 AUDIO
    TITLE "0:"
    INDEX 01 01:15:03
  TRACK 44 AUDIO
    TITLE "3:cjc039_4622"
    INDEX 01 01:15:58
  TRACK 45 AUDIO
    TITLE "0:"
    INDEX 01 01:18:17
  TRACK 46 AUDIO
    TITLE "2:cjc039_4623"
    INDEX 01 01:19:64
  TRACK 47 AUDIO
    TITLE "0:"
    INDEX 01 01:21:33
  TRACK 48 AUDIO
    TITLE "3:cjc039_4624"
    INDEX 01 01:22:11
  TRACK 49 AUDIO
    TITLE "0:"
    INDEX 01 01:26:52
  TRACK 50 AUDIO
    TITLE "2:cjc039_4625"
    INDEX 01 01:28:25
  TRACK 51 AUDIO
    TITLE "0:"
    INDEX 01 01:29:56
  TRACK 52 AUDIO
    TITLE "3:cjc039_4626"
    INDEX 01 01:30:32
  TRACK 53 AUDIO
    TITLE "0:"
    INDEX 01 01:33:31
  TRACK 54 AUDIO
    TITLE "2:cjc039_4627"
    INDEX 01 01:35:08
  TRACK 55 AUDIO
    TITLE "0:"
    INDEX 01 01:36:33
  TRACK 56 AUDIO
    TITLE "3:cjc039_4628"
    INDEX 01 01:37:13
  TRACK 57 AUDIO
    TITLE "0:"
    INDEX 01 01:40:58
  TRACK 58 AUDIO
    TITLE "2:cjc039_4629"
    INDEX 01 01:42:41
  TRACK 59 AUDIO
    TITLE "0:"
    INDEX 01 01:43:64
  TRACK 60 AUDIO
    TITLE "3:cjc039_4630"
    INDEX 01 01:44:48
  TRACK 61 AUDIO
    TITLE "0:"
    INDEX 01 01:47:48
  TRACK 62 AUDIO
    TITLE "2:cjc039_4631"
    INDEX 01 01:49:26
  TRACK 63 AUDIO
    TITLE "0:"
    INDEX 01 01:50:37
  TRACK 64 AUDIO
    TITLE "3:cjc039_4632"
    INDEX 01 01:51:21
  TRACK 65 AUDIO
    TITLE "0:"
    INDEX 01 01:54:54
  TRACK 66 AUDIO
    TITLE "2:cjc039_4633"
    INDEX 01 01:56:30
  TRACK 67 AUDIO
    TITLE "0:"
    INDEX 01 01:57:49
  TRACK 68 AUDIO
    TITLE "3:cjc039_4634"
    INDEX 01 01:58:25
  TRACK 69 AUDIO
    TITLE "0:"
    INDEX 01 02:01:70
  TRACK 70 AUDIO
    TITLE "2:cjc039_4635"
    INDEX 01 02:03:45
  TRACK 71 AUDIO
    TITLE "0:"
    INDEX 01 02:04:62
  TRACK 72 AUDIO
    TITLE "3:cjc039_4636"
    INDEX 01 02:05:42
  TRACK 73 AUDIO
    TITLE "0:"
    INDEX 01 02:08:68
  TRACK 74 AUDIO
    TITLE "2:cjc039_4637"
    INDEX 01 02:10:45
  TRACK 75 AUDIO
    TITLE "0:"
    INDEX 01 02:11:45
  TRACK 76 AUDIO
    TITLE "3:cjc039_4638"
    INDEX 01 02:12:29
  TRACK 77 AUDIO
    TITLE "0:"
    INDEX 01 02:15:13
  TRACK 78 AUDIO
    TITLE "2:cjc039_4639"
    INDEX 01 02:16:70
  TRACK 79 AUDIO
    TITLE "0:"
    INDEX 01 02:18:23
  TRACK 80 AUDIO
    TITLE "3:cjc039_4640"
    INDEX 01 02:19:03
  TRACK 81 AUDIO
    TITLE "0:"
    INDEX 01 02:22:11
